<mxfile host="app.diagrams.net" modified="2023-10-06T18:01:57.998Z" agent="Mozilla/5.0 (X11; Ubuntu; Linux x86_64; rv:109.0) Gecko/20100101 Firefox/118.0" etag="RWhkRI9YzbEBOomD1AGG" version="22.0.3" type="device">
  <diagram name="Página-1" id="bo9qTWIEHryAF4GlGqXE">
    <mxGraphModel dx="1949" dy="1816" grid="1" gridSize="10" guides="1" tooltips="1" connect="1" arrows="1" fold="1" page="1" pageScale="1" pageWidth="827" pageHeight="1169" math="0" shadow="0">
      <root>
        <mxCell id="0" />
        <mxCell id="1" parent="0" />
        <mxCell id="8NhIyAm43lVd6RDA87Y7-179" value="" style="rounded=0;whiteSpace=wrap;html=1;" vertex="1" parent="1">
          <mxGeometry x="-220" y="-300" width="560" height="1090" as="geometry" />
        </mxCell>
        <mxCell id="8NhIyAm43lVd6RDA87Y7-178" value="" style="rounded=0;whiteSpace=wrap;html=1;" vertex="1" parent="1">
          <mxGeometry x="-220" y="-320" width="560" height="20" as="geometry" />
        </mxCell>
        <mxCell id="8NhIyAm43lVd6RDA87Y7-96" value="" style="endArrow=none;dashed=1;html=1;dashPattern=1 3;strokeWidth=2;rounded=0;entryX=0.5;entryY=1;entryDx=0;entryDy=0;" edge="1" parent="1" source="8NhIyAm43lVd6RDA87Y7-101">
          <mxGeometry width="50" height="50" relative="1" as="geometry">
            <mxPoint x="684" y="1440" as="sourcePoint" />
            <mxPoint x="684.37" y="940" as="targetPoint" />
          </mxGeometry>
        </mxCell>
        <mxCell id="8NhIyAm43lVd6RDA87Y7-3" value=": Arquiteta" style="html=1;whiteSpace=wrap;" vertex="1" parent="1">
          <mxGeometry x="-15" y="890" width="110" height="50" as="geometry" />
        </mxCell>
        <mxCell id="8NhIyAm43lVd6RDA87Y7-5" value="BD" style="html=1;whiteSpace=wrap;" vertex="1" parent="1">
          <mxGeometry x="630" y="890" width="110" height="50" as="geometry" />
        </mxCell>
        <mxCell id="8NhIyAm43lVd6RDA87Y7-6" value="" style="endArrow=none;dashed=1;html=1;dashPattern=1 3;strokeWidth=2;rounded=0;entryX=0.5;entryY=1;entryDx=0;entryDy=0;" edge="1" parent="1" target="8NhIyAm43lVd6RDA87Y7-3">
          <mxGeometry width="50" height="50" relative="1" as="geometry">
            <mxPoint x="40" y="1550" as="sourcePoint" />
            <mxPoint x="60" y="1000" as="targetPoint" />
          </mxGeometry>
        </mxCell>
        <mxCell id="8NhIyAm43lVd6RDA87Y7-10" value="" style="rounded=0;whiteSpace=wrap;html=1;rotation=90;" vertex="1" parent="1">
          <mxGeometry x="-222.44" y="1234.93" width="524.86" height="30" as="geometry" />
        </mxCell>
        <mxCell id="8NhIyAm43lVd6RDA87Y7-14" value=":Interface" style="html=1;whiteSpace=wrap;" vertex="1" parent="1">
          <mxGeometry x="307.5" y="890" width="110" height="50" as="geometry" />
        </mxCell>
        <mxCell id="8NhIyAm43lVd6RDA87Y7-15" value="" style="endArrow=classic;html=1;rounded=0;" edge="1" parent="1">
          <mxGeometry width="50" height="50" relative="1" as="geometry">
            <mxPoint x="53.75" y="1030" as="sourcePoint" />
            <mxPoint x="346.25" y="1030" as="targetPoint" />
          </mxGeometry>
        </mxCell>
        <mxCell id="8NhIyAm43lVd6RDA87Y7-16" value="Cadastrar projeto executivo()" style="text;html=1;strokeColor=none;fillColor=none;align=center;verticalAlign=middle;whiteSpace=wrap;rounded=0;" vertex="1" parent="1">
          <mxGeometry x="98.75" y="1010" width="195" height="20" as="geometry" />
        </mxCell>
        <mxCell id="8NhIyAm43lVd6RDA87Y7-23" value="" style="endArrow=classic;dashed=1;html=1;rounded=0;labelBackgroundColor=default;strokeColor=default;align=center;verticalAlign=middle;fontFamily=Helvetica;fontSize=11;fontColor=default;" edge="1" parent="1">
          <mxGeometry width="50" height="50" relative="1" as="geometry">
            <mxPoint x="665.26" y="1100" as="sourcePoint" />
            <mxPoint x="384.76" y="1100" as="targetPoint" />
          </mxGeometry>
        </mxCell>
        <mxCell id="8NhIyAm43lVd6RDA87Y7-85" value=":Cliente" style="html=1;whiteSpace=wrap;" vertex="1" parent="1">
          <mxGeometry x="-350" y="890" width="110" height="50" as="geometry" />
        </mxCell>
        <mxCell id="8NhIyAm43lVd6RDA87Y7-88" value="" style="endArrow=none;dashed=1;html=1;dashPattern=1 3;strokeWidth=2;rounded=0;entryX=0.5;entryY=1;entryDx=0;entryDy=0;" edge="1" parent="1">
          <mxGeometry width="50" height="50" relative="1" as="geometry">
            <mxPoint x="-295" y="1550" as="sourcePoint" />
            <mxPoint x="-295.47" y="940" as="targetPoint" />
          </mxGeometry>
        </mxCell>
        <mxCell id="8NhIyAm43lVd6RDA87Y7-89" value="" style="endArrow=classic;html=1;rounded=0;" edge="1" parent="1">
          <mxGeometry width="50" height="50" relative="1" as="geometry">
            <mxPoint x="-280" y="1010" as="sourcePoint" />
            <mxPoint x="12.5" y="1010" as="targetPoint" />
          </mxGeometry>
        </mxCell>
        <mxCell id="8NhIyAm43lVd6RDA87Y7-90" value="Solicitar projeto executivo()" style="text;html=1;strokeColor=none;fillColor=none;align=center;verticalAlign=middle;whiteSpace=wrap;rounded=0;" vertex="1" parent="1">
          <mxGeometry x="-230" y="990" width="195" height="20" as="geometry" />
        </mxCell>
        <mxCell id="8NhIyAm43lVd6RDA87Y7-92" value="" style="endArrow=classic;html=1;rounded=0;" edge="1" parent="1">
          <mxGeometry width="50" height="50" relative="1" as="geometry">
            <mxPoint x="380" y="1060" as="sourcePoint" />
            <mxPoint x="672.5" y="1060" as="targetPoint" />
          </mxGeometry>
        </mxCell>
        <mxCell id="8NhIyAm43lVd6RDA87Y7-93" value="Verificar a existência do cliente " style="text;html=1;strokeColor=none;fillColor=none;align=center;verticalAlign=middle;whiteSpace=wrap;rounded=0;" vertex="1" parent="1">
          <mxGeometry x="417.5" y="1040" width="195" height="20" as="geometry" />
        </mxCell>
        <mxCell id="8NhIyAm43lVd6RDA87Y7-94" value="" style="endArrow=none;dashed=1;html=1;dashPattern=1 3;strokeWidth=2;rounded=0;entryX=0.5;entryY=1;entryDx=0;entryDy=0;" edge="1" parent="1">
          <mxGeometry width="50" height="50" relative="1" as="geometry">
            <mxPoint x="362" y="1550" as="sourcePoint" />
            <mxPoint x="361.88" y="940" as="targetPoint" />
          </mxGeometry>
        </mxCell>
        <mxCell id="8NhIyAm43lVd6RDA87Y7-95" value="" style="rounded=0;whiteSpace=wrap;html=1;rotation=90;" vertex="1" parent="1">
          <mxGeometry x="635.95" y="1078.9" width="98.12" height="30" as="geometry" />
        </mxCell>
        <mxCell id="8NhIyAm43lVd6RDA87Y7-13" value="" style="rounded=0;whiteSpace=wrap;html=1;rotation=90;" vertex="1" parent="1">
          <mxGeometry x="98.75" y="1236.25" width="527.5" height="30" as="geometry" />
        </mxCell>
        <mxCell id="8NhIyAm43lVd6RDA87Y7-97" value="Cliente existe mostrar dados()" style="text;html=1;strokeColor=none;fillColor=none;align=center;verticalAlign=middle;whiteSpace=wrap;rounded=0;" vertex="1" parent="1">
          <mxGeometry x="420" y="1078.9" width="192.5" height="20" as="geometry" />
        </mxCell>
        <mxCell id="8NhIyAm43lVd6RDA87Y7-99" value="" style="endArrow=classic;html=1;rounded=0;" edge="1" parent="1">
          <mxGeometry width="50" height="50" relative="1" as="geometry">
            <mxPoint x="377.51" y="1277.12" as="sourcePoint" />
            <mxPoint x="670.01" y="1277.12" as="targetPoint" />
          </mxGeometry>
        </mxCell>
        <mxCell id="8NhIyAm43lVd6RDA87Y7-100" value="Gravar dados do cliente()" style="text;html=1;strokeColor=none;fillColor=none;align=center;verticalAlign=middle;whiteSpace=wrap;rounded=0;" vertex="1" parent="1">
          <mxGeometry x="425.01" y="1257.12" width="195" height="20" as="geometry" />
        </mxCell>
        <mxCell id="8NhIyAm43lVd6RDA87Y7-104" value="" style="endArrow=classic;dashed=1;html=1;rounded=0;labelBackgroundColor=default;strokeColor=default;align=center;verticalAlign=middle;fontFamily=Helvetica;fontSize=11;fontColor=default;" edge="1" parent="1">
          <mxGeometry width="50" height="50" relative="1" as="geometry">
            <mxPoint x="665.26" y="1140" as="sourcePoint" />
            <mxPoint x="384.76" y="1140" as="targetPoint" />
          </mxGeometry>
        </mxCell>
        <mxCell id="8NhIyAm43lVd6RDA87Y7-106" value="Cliente não existe()" style="text;html=1;strokeColor=none;fillColor=none;align=center;verticalAlign=middle;whiteSpace=wrap;rounded=0;" vertex="1" parent="1">
          <mxGeometry x="420" y="1120" width="192.5" height="20" as="geometry" />
        </mxCell>
        <mxCell id="8NhIyAm43lVd6RDA87Y7-107" value="" style="endArrow=classic;dashed=1;html=1;rounded=0;labelBackgroundColor=default;strokeColor=default;align=center;verticalAlign=middle;fontFamily=Helvetica;fontSize=11;fontColor=default;" edge="1" parent="1">
          <mxGeometry width="50" height="50" relative="1" as="geometry">
            <mxPoint x="662.76" y="1311.6399999999999" as="sourcePoint" />
            <mxPoint x="382.26" y="1311.6399999999999" as="targetPoint" />
          </mxGeometry>
        </mxCell>
        <mxCell id="8NhIyAm43lVd6RDA87Y7-108" value="" style="endArrow=classic;html=1;rounded=0;" edge="1" parent="1">
          <mxGeometry width="50" height="50" relative="1" as="geometry">
            <mxPoint x="378.15" y="1420" as="sourcePoint" />
            <mxPoint x="670.65" y="1420" as="targetPoint" />
          </mxGeometry>
        </mxCell>
        <mxCell id="8NhIyAm43lVd6RDA87Y7-112" value="Gravar dados do projeto()" style="text;html=1;strokeColor=none;fillColor=none;align=center;verticalAlign=middle;whiteSpace=wrap;rounded=0;" vertex="1" parent="1">
          <mxGeometry x="426.9" y="1400" width="195" height="20" as="geometry" />
        </mxCell>
        <mxCell id="8NhIyAm43lVd6RDA87Y7-113" value="" style="endArrow=classic;dashed=1;html=1;rounded=0;labelBackgroundColor=default;strokeColor=default;align=center;verticalAlign=middle;fontFamily=Helvetica;fontSize=11;fontColor=default;" edge="1" parent="1">
          <mxGeometry width="50" height="50" relative="1" as="geometry">
            <mxPoint x="664.65" y="1458.75" as="sourcePoint" />
            <mxPoint x="384.15" y="1458.75" as="targetPoint" />
          </mxGeometry>
        </mxCell>
        <mxCell id="8NhIyAm43lVd6RDA87Y7-86" value="" style="rounded=0;whiteSpace=wrap;html=1;rotation=90;" vertex="1" parent="1">
          <mxGeometry x="-554.7" y="1232.35" width="519.7" height="30" as="geometry" />
        </mxCell>
        <mxCell id="8NhIyAm43lVd6RDA87Y7-116" value="" style="endArrow=classic;dashed=1;html=1;rounded=0;labelBackgroundColor=default;strokeColor=default;align=center;verticalAlign=middle;fontFamily=Helvetica;fontSize=11;fontColor=default;" edge="1" parent="1">
          <mxGeometry width="50" height="50" relative="1" as="geometry">
            <mxPoint x="340.5" y="1168" as="sourcePoint" />
            <mxPoint x="60" y="1168" as="targetPoint" />
          </mxGeometry>
        </mxCell>
        <mxCell id="8NhIyAm43lVd6RDA87Y7-121" value="" style="endArrow=none;dashed=1;html=1;dashPattern=1 3;strokeWidth=2;rounded=0;entryX=1;entryY=0.5;entryDx=0;entryDy=0;" edge="1" parent="1" target="8NhIyAm43lVd6RDA87Y7-101">
          <mxGeometry width="50" height="50" relative="1" as="geometry">
            <mxPoint x="685" y="1540" as="sourcePoint" />
            <mxPoint x="684.37" y="940" as="targetPoint" />
          </mxGeometry>
        </mxCell>
        <mxCell id="8NhIyAm43lVd6RDA87Y7-101" value="" style="rounded=0;whiteSpace=wrap;html=1;rotation=90;" vertex="1" parent="1">
          <mxGeometry x="645.48" y="1280" width="79.06" height="30" as="geometry" />
        </mxCell>
        <mxCell id="8NhIyAm43lVd6RDA87Y7-122" value="" style="endArrow=classic;html=1;rounded=0;" edge="1" parent="1">
          <mxGeometry width="50" height="50" relative="1" as="geometry">
            <mxPoint x="60" y="1250.0000000000002" as="sourcePoint" />
            <mxPoint x="340" y="1250" as="targetPoint" />
          </mxGeometry>
        </mxCell>
        <mxCell id="8NhIyAm43lVd6RDA87Y7-123" value="Incluir dados do cliente" style="text;html=1;strokeColor=none;fillColor=none;align=center;verticalAlign=middle;whiteSpace=wrap;rounded=0;" vertex="1" parent="1">
          <mxGeometry x="98.75" y="1229.21" width="195" height="20" as="geometry" />
        </mxCell>
        <mxCell id="8NhIyAm43lVd6RDA87Y7-125" value="" style="endArrow=classic;dashed=1;html=1;rounded=0;labelBackgroundColor=default;strokeColor=default;align=center;verticalAlign=middle;fontFamily=Helvetica;fontSize=11;fontColor=default;" edge="1" parent="1">
          <mxGeometry width="50" height="50" relative="1" as="geometry">
            <mxPoint x="340.5" y="1349.9999999999998" as="sourcePoint" />
            <mxPoint x="60" y="1349.9999999999998" as="targetPoint" />
          </mxGeometry>
        </mxCell>
        <mxCell id="8NhIyAm43lVd6RDA87Y7-127" value="" style="endArrow=classic;html=1;rounded=0;" edge="1" parent="1">
          <mxGeometry width="50" height="50" relative="1" as="geometry">
            <mxPoint x="60" y="1390" as="sourcePoint" />
            <mxPoint x="342.5" y="1390" as="targetPoint" />
          </mxGeometry>
        </mxCell>
        <mxCell id="8NhIyAm43lVd6RDA87Y7-128" value="Incluir dados do projeto executivo()" style="text;html=1;strokeColor=none;fillColor=none;align=center;verticalAlign=middle;whiteSpace=wrap;rounded=0;" vertex="1" parent="1">
          <mxGeometry x="95" y="1370" width="195" height="20" as="geometry" />
        </mxCell>
        <mxCell id="8NhIyAm43lVd6RDA87Y7-130" value="" style="endArrow=classic;dashed=1;html=1;rounded=0;labelBackgroundColor=default;strokeColor=default;align=center;verticalAlign=middle;fontFamily=Helvetica;fontSize=11;fontColor=default;" edge="1" parent="1">
          <mxGeometry width="50" height="50" relative="1" as="geometry">
            <mxPoint x="340.5" y="1490" as="sourcePoint" />
            <mxPoint x="60" y="1490" as="targetPoint" />
          </mxGeometry>
        </mxCell>
        <mxCell id="8NhIyAm43lVd6RDA87Y7-109" value="" style="rounded=0;whiteSpace=wrap;html=1;rotation=90;" vertex="1" parent="1">
          <mxGeometry x="645.48" y="1430" width="79.06" height="30" as="geometry" />
        </mxCell>
        <mxCell id="8NhIyAm43lVd6RDA87Y7-132" value="" style="ellipse;html=1;shape=startState;fillColor=#000000;strokeColor=#ff0000;" vertex="1" parent="1">
          <mxGeometry x="-100" y="-260" width="30" height="30" as="geometry" />
        </mxCell>
        <mxCell id="8NhIyAm43lVd6RDA87Y7-133" value="" style="edgeStyle=orthogonalEdgeStyle;html=1;verticalAlign=bottom;endArrow=open;endSize=8;strokeColor=#ff0000;rounded=0;" edge="1" source="8NhIyAm43lVd6RDA87Y7-132" parent="1">
          <mxGeometry relative="1" as="geometry">
            <mxPoint x="-85" y="-170" as="targetPoint" />
          </mxGeometry>
        </mxCell>
        <mxCell id="8NhIyAm43lVd6RDA87Y7-141" style="edgeStyle=orthogonalEdgeStyle;rounded=0;orthogonalLoop=1;jettySize=auto;html=1;entryX=0;entryY=0.5;entryDx=0;entryDy=0;" edge="1" parent="1" source="8NhIyAm43lVd6RDA87Y7-137" target="8NhIyAm43lVd6RDA87Y7-138">
          <mxGeometry relative="1" as="geometry" />
        </mxCell>
        <mxCell id="8NhIyAm43lVd6RDA87Y7-137" value="Solicitar projeto executivo" style="rounded=0;whiteSpace=wrap;html=1;" vertex="1" parent="1">
          <mxGeometry x="-145" y="-170" width="120" height="60" as="geometry" />
        </mxCell>
        <mxCell id="8NhIyAm43lVd6RDA87Y7-142" style="edgeStyle=orthogonalEdgeStyle;rounded=0;orthogonalLoop=1;jettySize=auto;html=1;entryX=0.5;entryY=0;entryDx=0;entryDy=0;" edge="1" parent="1" source="8NhIyAm43lVd6RDA87Y7-138" target="8NhIyAm43lVd6RDA87Y7-140">
          <mxGeometry relative="1" as="geometry" />
        </mxCell>
        <mxCell id="8NhIyAm43lVd6RDA87Y7-146" style="edgeStyle=orthogonalEdgeStyle;rounded=0;orthogonalLoop=1;jettySize=auto;html=1;entryX=1;entryY=0.5;entryDx=0;entryDy=0;" edge="1" parent="1" source="8NhIyAm43lVd6RDA87Y7-138" target="8NhIyAm43lVd6RDA87Y7-143">
          <mxGeometry relative="1" as="geometry">
            <Array as="points">
              <mxPoint x="276" y="-140" />
              <mxPoint x="276" y="100" />
            </Array>
          </mxGeometry>
        </mxCell>
        <mxCell id="8NhIyAm43lVd6RDA87Y7-138" value="" style="rhombus;whiteSpace=wrap;html=1;" vertex="1" parent="1">
          <mxGeometry x="156" y="-180" width="80" height="80" as="geometry" />
        </mxCell>
        <mxCell id="8NhIyAm43lVd6RDA87Y7-139" value="[O cliente está cadastrado?]" style="text;html=1;strokeColor=none;fillColor=none;align=center;verticalAlign=middle;whiteSpace=wrap;rounded=0;" vertex="1" parent="1">
          <mxGeometry x="80" y="-180" width="80" height="30" as="geometry" />
        </mxCell>
        <mxCell id="8NhIyAm43lVd6RDA87Y7-144" style="edgeStyle=orthogonalEdgeStyle;rounded=0;orthogonalLoop=1;jettySize=auto;html=1;entryX=0.5;entryY=0;entryDx=0;entryDy=0;" edge="1" parent="1" source="8NhIyAm43lVd6RDA87Y7-140" target="8NhIyAm43lVd6RDA87Y7-143">
          <mxGeometry relative="1" as="geometry" />
        </mxCell>
        <mxCell id="8NhIyAm43lVd6RDA87Y7-140" value="Cadastrar Cliente (nome, informações de contado)" style="rounded=0;whiteSpace=wrap;html=1;" vertex="1" parent="1">
          <mxGeometry x="136.25" y="-30" width="120" height="60" as="geometry" />
        </mxCell>
        <mxCell id="8NhIyAm43lVd6RDA87Y7-149" style="edgeStyle=orthogonalEdgeStyle;rounded=0;orthogonalLoop=1;jettySize=auto;html=1;entryX=0.5;entryY=0;entryDx=0;entryDy=0;" edge="1" parent="1" source="8NhIyAm43lVd6RDA87Y7-143" target="8NhIyAm43lVd6RDA87Y7-148">
          <mxGeometry relative="1" as="geometry" />
        </mxCell>
        <mxCell id="8NhIyAm43lVd6RDA87Y7-143" value="Cadastrar projeto executivo" style="rounded=0;whiteSpace=wrap;html=1;" vertex="1" parent="1">
          <mxGeometry x="136" y="70" width="120" height="60" as="geometry" />
        </mxCell>
        <mxCell id="8NhIyAm43lVd6RDA87Y7-145" value="Não" style="text;html=1;strokeColor=none;fillColor=none;align=center;verticalAlign=middle;whiteSpace=wrap;rounded=0;" vertex="1" parent="1">
          <mxGeometry x="176" y="-100" width="80" height="30" as="geometry" />
        </mxCell>
        <mxCell id="8NhIyAm43lVd6RDA87Y7-147" value="Sim" style="text;html=1;strokeColor=none;fillColor=none;align=center;verticalAlign=middle;whiteSpace=wrap;rounded=0;" vertex="1" parent="1">
          <mxGeometry x="213.75" y="-170" width="80" height="30" as="geometry" />
        </mxCell>
        <mxCell id="8NhIyAm43lVd6RDA87Y7-151" style="edgeStyle=orthogonalEdgeStyle;rounded=0;orthogonalLoop=1;jettySize=auto;html=1;exitX=0.5;exitY=1;exitDx=0;exitDy=0;entryX=0.5;entryY=0;entryDx=0;entryDy=0;" edge="1" parent="1" source="8NhIyAm43lVd6RDA87Y7-148" target="8NhIyAm43lVd6RDA87Y7-150">
          <mxGeometry relative="1" as="geometry" />
        </mxCell>
        <mxCell id="8NhIyAm43lVd6RDA87Y7-148" value="Inserir dados do projeto (endereço, data de inicio)" style="rounded=0;whiteSpace=wrap;html=1;" vertex="1" parent="1">
          <mxGeometry x="135" y="170" width="120" height="60" as="geometry" />
        </mxCell>
        <mxCell id="8NhIyAm43lVd6RDA87Y7-156" style="edgeStyle=orthogonalEdgeStyle;rounded=0;orthogonalLoop=1;jettySize=auto;html=1;exitX=0.5;exitY=1;exitDx=0;exitDy=0;entryX=0.5;entryY=0;entryDx=0;entryDy=0;" edge="1" parent="1" source="8NhIyAm43lVd6RDA87Y7-150" target="8NhIyAm43lVd6RDA87Y7-152">
          <mxGeometry relative="1" as="geometry" />
        </mxCell>
        <mxCell id="8NhIyAm43lVd6RDA87Y7-150" value="Definir etapas que serão executadas" style="rounded=0;whiteSpace=wrap;html=1;" vertex="1" parent="1">
          <mxGeometry x="135" y="265" width="120" height="60" as="geometry" />
        </mxCell>
        <mxCell id="8NhIyAm43lVd6RDA87Y7-154" style="edgeStyle=orthogonalEdgeStyle;rounded=0;orthogonalLoop=1;jettySize=auto;html=1;entryX=1;entryY=0.5;entryDx=0;entryDy=0;" edge="1" parent="1" source="8NhIyAm43lVd6RDA87Y7-152" target="8NhIyAm43lVd6RDA87Y7-153">
          <mxGeometry relative="1" as="geometry" />
        </mxCell>
        <mxCell id="8NhIyAm43lVd6RDA87Y7-152" value="Realizar orçamento" style="rounded=0;whiteSpace=wrap;html=1;" vertex="1" parent="1">
          <mxGeometry x="135" y="360" width="120" height="60" as="geometry" />
        </mxCell>
        <mxCell id="8NhIyAm43lVd6RDA87Y7-153" value="Receber oraçamento" style="rounded=0;whiteSpace=wrap;html=1;" vertex="1" parent="1">
          <mxGeometry x="-145" y="360" width="120" height="60" as="geometry" />
        </mxCell>
        <mxCell id="8NhIyAm43lVd6RDA87Y7-164" style="edgeStyle=orthogonalEdgeStyle;rounded=0;orthogonalLoop=1;jettySize=auto;html=1;entryX=0;entryY=0.5;entryDx=0;entryDy=0;" edge="1" parent="1" source="8NhIyAm43lVd6RDA87Y7-158" target="8NhIyAm43lVd6RDA87Y7-163">
          <mxGeometry relative="1" as="geometry">
            <Array as="points">
              <mxPoint x="-85.25" y="590" />
            </Array>
          </mxGeometry>
        </mxCell>
        <mxCell id="8NhIyAm43lVd6RDA87Y7-158" value="" style="rhombus;whiteSpace=wrap;html=1;" vertex="1" parent="1">
          <mxGeometry x="-125" y="455" width="80" height="80" as="geometry" />
        </mxCell>
        <mxCell id="8NhIyAm43lVd6RDA87Y7-159" style="edgeStyle=orthogonalEdgeStyle;rounded=0;orthogonalLoop=1;jettySize=auto;html=1;exitX=0.5;exitY=1;exitDx=0;exitDy=0;entryX=0.5;entryY=0;entryDx=0;entryDy=0;" edge="1" parent="1" source="8NhIyAm43lVd6RDA87Y7-153" target="8NhIyAm43lVd6RDA87Y7-158">
          <mxGeometry relative="1" as="geometry" />
        </mxCell>
        <mxCell id="8NhIyAm43lVd6RDA87Y7-160" value="[O cliente aceita o orçamento?]" style="text;html=1;strokeColor=none;fillColor=none;align=center;verticalAlign=middle;whiteSpace=wrap;rounded=0;" vertex="1" parent="1">
          <mxGeometry x="-206.25" y="455" width="90" height="30" as="geometry" />
        </mxCell>
        <mxCell id="8NhIyAm43lVd6RDA87Y7-173" style="edgeStyle=orthogonalEdgeStyle;rounded=0;orthogonalLoop=1;jettySize=auto;html=1;entryX=1;entryY=0.5;entryDx=0;entryDy=0;" edge="1" parent="1" source="8NhIyAm43lVd6RDA87Y7-161" target="8NhIyAm43lVd6RDA87Y7-171">
          <mxGeometry relative="1" as="geometry">
            <Array as="points">
              <mxPoint x="273.75" y="495" />
              <mxPoint x="273.75" y="612" />
              <mxPoint x="274.75" y="715" />
            </Array>
          </mxGeometry>
        </mxCell>
        <mxCell id="8NhIyAm43lVd6RDA87Y7-161" value="Definir Cronograma" style="rounded=0;whiteSpace=wrap;html=1;" vertex="1" parent="1">
          <mxGeometry x="135" y="465" width="120" height="60" as="geometry" />
        </mxCell>
        <mxCell id="8NhIyAm43lVd6RDA87Y7-172" style="edgeStyle=orthogonalEdgeStyle;rounded=0;orthogonalLoop=1;jettySize=auto;html=1;entryX=0.5;entryY=0;entryDx=0;entryDy=0;" edge="1" parent="1" source="8NhIyAm43lVd6RDA87Y7-163" target="8NhIyAm43lVd6RDA87Y7-171">
          <mxGeometry relative="1" as="geometry" />
        </mxCell>
        <mxCell id="8NhIyAm43lVd6RDA87Y7-163" value="Arquiva o projeto" style="rounded=0;whiteSpace=wrap;html=1;" vertex="1" parent="1">
          <mxGeometry x="135" y="560" width="120" height="60" as="geometry" />
        </mxCell>
        <mxCell id="8NhIyAm43lVd6RDA87Y7-168" value="" style="edgeStyle=orthogonalEdgeStyle;rounded=0;orthogonalLoop=1;jettySize=auto;html=1;exitX=1;exitY=0.5;exitDx=0;exitDy=0;entryX=0;entryY=0.5;entryDx=0;entryDy=0;" edge="1" parent="1" source="8NhIyAm43lVd6RDA87Y7-158" target="8NhIyAm43lVd6RDA87Y7-161">
          <mxGeometry relative="1" as="geometry">
            <mxPoint x="-45.25" y="495" as="sourcePoint" />
            <mxPoint x="3.740000000000009" y="480" as="targetPoint" />
          </mxGeometry>
        </mxCell>
        <mxCell id="8NhIyAm43lVd6RDA87Y7-169" value="Não" style="text;html=1;strokeColor=none;fillColor=none;align=center;verticalAlign=middle;whiteSpace=wrap;rounded=0;" vertex="1" parent="1">
          <mxGeometry x="-100" y="555" width="80" height="30" as="geometry" />
        </mxCell>
        <mxCell id="8NhIyAm43lVd6RDA87Y7-170" value="Sim" style="text;html=1;strokeColor=none;fillColor=none;align=center;verticalAlign=middle;whiteSpace=wrap;rounded=0;" vertex="1" parent="1">
          <mxGeometry x="-70" y="465" width="80" height="30" as="geometry" />
        </mxCell>
        <mxCell id="8NhIyAm43lVd6RDA87Y7-171" value="" style="ellipse;html=1;shape=endState;fillColor=#000000;strokeColor=#ff0000;" vertex="1" parent="1">
          <mxGeometry x="180.75" y="700" width="30" height="30" as="geometry" />
        </mxCell>
        <mxCell id="8NhIyAm43lVd6RDA87Y7-174" value="Fim" style="text;html=1;strokeColor=none;fillColor=none;align=center;verticalAlign=middle;whiteSpace=wrap;rounded=0;" vertex="1" parent="1">
          <mxGeometry x="155" y="740" width="80" height="30" as="geometry" />
        </mxCell>
        <mxCell id="8NhIyAm43lVd6RDA87Y7-175" value="Inicio" style="text;html=1;strokeColor=none;fillColor=none;align=center;verticalAlign=middle;whiteSpace=wrap;rounded=0;" vertex="1" parent="1">
          <mxGeometry x="-125" y="-280" width="80" height="30" as="geometry" />
        </mxCell>
        <mxCell id="8NhIyAm43lVd6RDA87Y7-176" value="" style="endArrow=none;html=1;rounded=0;" edge="1" parent="1">
          <mxGeometry width="50" height="50" relative="1" as="geometry">
            <mxPoint x="60" y="790" as="sourcePoint" />
            <mxPoint x="60" y="-320" as="targetPoint" />
          </mxGeometry>
        </mxCell>
        <mxCell id="8NhIyAm43lVd6RDA87Y7-180" value="Cliente" style="text;html=1;strokeColor=none;fillColor=none;align=center;verticalAlign=middle;whiteSpace=wrap;rounded=0;" vertex="1" parent="1">
          <mxGeometry x="-108.75" y="-325" width="60" height="30" as="geometry" />
        </mxCell>
        <mxCell id="8NhIyAm43lVd6RDA87Y7-181" value="Arquiteta" style="text;html=1;strokeColor=none;fillColor=none;align=center;verticalAlign=middle;whiteSpace=wrap;rounded=0;" vertex="1" parent="1">
          <mxGeometry x="166.25" y="-325" width="60" height="30" as="geometry" />
        </mxCell>
      </root>
    </mxGraphModel>
  </diagram>
</mxfile>
